<svg width="16" height="16" fill="none" xmlns="http://www.w3.org/2000/svg"><g clip-path="url(#clip0_175_1133)"><path fill-rule="evenodd" clip-rule="evenodd" d="M8.583 2.083H6c-1.593 0-2.512.323-3.053.864-.54.54-.864 1.46-.864 3.053v4c0 1.593.324 2.512.864 3.053.54.54 1.46.864 3.053.864h4c1.593 0 2.512-.323 3.053-.864.54-.54.864-1.46.864-3.053V7.417H12c-1.041 0-1.975-.164-2.614-.803-.639-.64-.803-1.573-.803-2.614V2.083zm6.833 4.548a.748.748 0 00-.222-.498L9.867.806a.748.748 0 00-.534-.223H6c-1.74 0-3.154.344-4.114 1.303C.926 2.846.583 4.26.583 6v4c0 1.74.344 3.154 1.303 4.114.96.959 2.373 1.303 4.114 1.303h4c1.74 0 3.154-.344 4.114-1.303.96-.96 1.303-2.373 1.303-4.114V6.667l-.001-.036zM10.083 4v-.856l2.773 2.773H12c-.958 0-1.359-.17-1.553-.364-.194-.194-.364-.595-.364-1.553zM6 6.583a.75.75 0 01.75.75v2.19l.053-.053a.75.75 0 011.06 1.06L6.53 11.864a.75.75 0 01-1.06 0L4.136 10.53a.75.75 0 111.061-1.06l.053.053v-2.19a.75.75 0 01.75-.75z" fill="#fff"/></g><defs><clipPath id="clip0_175_1133"><path fill="#fff" d="M0 0h16v16H0z"/></clipPath></defs></svg>