<svg width="16" height="16" fill="none" xmlns="http://www.w3.org/2000/svg"><path fill-rule="evenodd" clip-rule="evenodd" d="M10.96 1.316c2.464 0 4.457 2.006 4.457 4.477 0 2.583-1.2 4.616-2.615 6.066-1.405 1.44-3.069 2.355-4.143 2.723a2.046 2.046 0 01-.659.101 2.05 2.05 0 01-.659-.101c-1.074-.368-2.737-1.283-4.143-2.723C1.783 10.41.583 8.376.583 5.793c0-2.47 1.993-4.477 4.457-4.477 1.14 0 2.176.43 2.96 1.135a4.436 4.436 0 012.96-1.135zm-5.92 1.5a2.966 2.966 0 00-2.957 2.977c0 2.084.961 3.76 2.189 5.019 1.237 1.267 2.698 2.058 3.557 2.351l.007.003s.015.005.05.01a.824.824 0 00.23 0 .285.285 0 00.048-.01l.007-.003c.86-.293 2.32-1.084 3.557-2.351 1.228-1.258 2.189-2.935 2.189-5.019a2.966 2.966 0 00-2.957-2.977 2.937 2.937 0 00-2.357 1.19.75.75 0 01-1.205 0 2.927 2.927 0 00-2.358-1.19z" fill="#fff"/></svg>