<svg width="24" height="24" fill="none" xmlns="http://www.w3.org/2000/svg"><path fill-rule="evenodd" clip-rule="evenodd" d="M3.095 3.095C4.429 1.76 6.426 1.25 9 1.25h6c2.574 0 4.57.51 5.905 1.845C22.24 4.429 22.75 6.426 22.75 9v6c0 2.574-.51 4.57-1.845 5.905C19.571 22.24 17.574 22.75 15 22.75H9c-2.574 0-4.57-.51-5.905-1.845C1.76 19.571 1.25 17.574 1.25 15V9c0-2.574.51-4.57 1.845-5.905zm1.06 1.06C3.24 5.071 2.75 6.574 2.75 9v6c0 2.426.49 3.93 1.405 4.845.916.915 2.419 1.405 4.845 1.405h6c2.426 0 3.93-.49 4.845-1.405.915-.916 1.405-2.419 1.405-4.845V9c0-2.426-.49-3.93-1.405-4.845C18.929 3.24 17.426 2.75 15 2.75H9c-2.426 0-3.93.49-4.845 1.405zM8.64 8.64a.75.75 0 011.06 0l2.3 2.3 2.3-2.3a.75.75 0 111.06 1.06l-2.3 2.3 2.3 2.3a.75.75 0 11-1.06 1.06l-2.3-2.3-2.3 2.3a.75.75 0 01-1.06-1.06l2.3-2.3-2.3-2.3a.75.75 0 010-1.06z" fill="#9494B0"/></svg>