<svg width="16" height="16" fill="none" xmlns="http://www.w3.org/2000/svg"><g clip-path="url(#clip0_175_1231)"><path fill-rule="evenodd" clip-rule="evenodd" d="M2.425 2.778c-.183.182-.342.586-.342 1.715v3.39h4.584a.75.75 0 010 1.5H2.129c.06.48.173.703.296.826.182.182.586.341 1.715.341h2.527a.75.75 0 01.75.75v3.013a.75.75 0 01-.75.75H4.493a.75.75 0 010-1.5h1.424V12.05H4.14c-1.117 0-2.117-.121-2.776-.78-.624-.624-.766-1.551-.78-2.595a.762.762 0 010-.068V4.493c0-1.117.12-2.116.78-2.776.66-.66 1.659-.78 2.776-.78h7.02c1.118 0 2.117.12 2.776.78.66.66.78 1.659.78 2.776a.75.75 0 01-1.5 0c0-1.129-.158-1.533-.34-1.715-.183-.182-.587-.341-1.716-.341H4.14c-1.13 0-1.533.159-1.715.34zm6.853 4.706c-.057.057-.174.253-.174 1.049v3.806c0 .797.117.992.174 1.05.057.056.253.174 1.049.174h2.367c.795 0 .991-.118 1.048-.175.057-.057.175-.252.175-1.049V8.534c0-.796-.117-.992-.175-1.049-.057-.057-.253-.174-1.049-.174h-2.366c-.796 0-.992.117-1.049.174zm-1.06-1.06c.534-.535 1.325-.614 2.109-.614h2.367c.783 0 1.574.079 2.109.613.535.535.614 1.326.614 2.11v3.806c0 .784-.08 1.575-.614 2.11-.535.535-1.326.614-2.11.614h-2.366c-.784 0-1.575-.08-2.11-.614-.534-.534-.613-1.325-.613-2.11V8.534c0-.784.079-1.575.613-2.11zm3.278 4.743a1 1 0 100 2h.007a1 1 0 000-2h-.007z" fill="#17192A"/></g><defs><clipPath id="clip0_175_1231"><path fill="#fff" d="M0 0h16v16H0z"/></clipPath></defs></svg>