<svg width="16" height="16" fill="none" xmlns="http://www.w3.org/2000/svg"><g clip-path="url(#clip0_175_1225)"><path fill-rule="evenodd" clip-rule="evenodd" d="M13.731 3.686l-3.99-2.619C9.23.73 8.601.583 8.014.582c-.588-.001-1.217.143-1.726.477h-.001L2.277 3.68c-1.74 1.135-1.74 3.68 0 4.815l.726.474-.006 2.877v.002c0 .609.23 1.197.568 1.665.337.468.822.874 1.399 1.066l2.126.707.003.001c.283.093.612.127.905.127.293 0 .621-.034.905-.126l2.134-.709c.577-.192 1.061-.598 1.398-1.066.337-.468.568-1.056.568-1.665V8.97l.514-.337V10a.75.75 0 001.5 0V6.368a2.86 2.86 0 00-1.286-2.682zm-.21 2.24a1.362 1.362 0 00-.612-.986L8.91 2.317c-.21-.14-.534-.234-.899-.235-.365 0-.689.092-.9.23l-.002.002-4.013 2.62a1.374 1.374 0 000 2.304L7.112 9.86c.211.138.536.231.901.231.366 0 .69-.093.902-.231l3.994-2.62c.353-.233.556-.587.608-.958V6c0-.025 0-.05.003-.074zm-2.018 4.03L9.74 11.112c-.51.335-1.138.478-1.726.478-.587 0-1.215-.143-1.724-.477l-.001-.001-1.787-1.167-.004 1.9c0 .238.096.527.285.79.19.264.432.445.655.52l2.124.705c.084.027.242.052.437.052.192 0 .353-.024.443-.053l2.122-.705c.223-.074.465-.255.655-.519.19-.263.285-.552.285-.79v-1.89z" fill="#fff"/></g><defs><clipPath id="clip0_175_1225"><path fill="#fff" d="M0 0h16v16H0z"/></clipPath></defs></svg>