<svg width="16" height="16" fill="none" xmlns="http://www.w3.org/2000/svg"><path fill-rule="evenodd" clip-rule="evenodd" d="M2.477 3.53c-.216.216-.394.651-.394 1.663v5.614c0 .592.15 1.102.44 1.45.27.325.743.606 1.617.606h4.213c1.009 0 1.444-.177 1.661-.394.217-.216.396-.651.396-1.662V5.193c0-1.012-.178-1.447-.394-1.663-.215-.215-.65-.393-1.663-.393H4.14c-1.012 0-1.447.178-1.663.393zm-1.06-1.06c.66-.661 1.629-.833 2.723-.833h4.213c1.095 0 2.063.172 2.724.833.661.66.833 1.629.833 2.723v5.614c0 1.095-.174 2.063-.836 2.724-.661.66-1.629.832-2.72.832H4.14c-1.233 0-2.163-.418-2.77-1.145-.586-.703-.787-1.597-.787-2.411V5.193c0-1.094.172-2.062.833-2.723z" fill="#fff"/><path fill-rule="evenodd" clip-rule="evenodd" d="M13.443 5.208L11.91 6.283V9.71l1.534 1.076.002.001c.224.158.345.172.386.17.025-.033.085-.14.085-.417V5.46c0-.28-.061-.387-.086-.42-.04-.002-.162.01-.388.168zm.378 5.762zm.706-7.263c.654.341.89 1.062.89 1.753v5.08c0 .69-.236 1.412-.891 1.753-.656.34-1.381.118-1.944-.28h-.001l-1.852-1.299a.75.75 0 01-.319-.614V5.893a.75.75 0 01.32-.614l1.854-1.3c.564-.395 1.289-.614 1.943-.272zM6.43 5.096A1.75 1.75 0 118.904 7.57 1.75 1.75 0 016.43 5.096zm1.238.987a.25.25 0 100 .5.25.25 0 000-.5z" fill="#fff"/></svg>