<svg width="16" height="16" fill="none" xmlns="http://www.w3.org/2000/svg"><path fill-rule="evenodd" clip-rule="evenodd" d="M7.86 2.547c-.224 0-.408.04-.507.084l-.002.001L3.416 4.38c-.198.087-.31.17-.369.227.058.056.17.14.37.227l3.936 1.748c.1.045.283.085.507.085.224 0 .408-.04.507-.085h.002l3.933-1.747.002-.001c.198-.088.31-.17.369-.227a1.256 1.256 0 00-.37-.227v-.001L8.366 2.63a1.34 1.34 0 00-.507-.084zm4.856 2.111zm0-.102zm-9.712.102zM8.98 1.262c-.347-.155-.754-.215-1.119-.215s-.772.06-1.119.215L2.81 3.007c-.642.284-1.298.804-1.298 1.6s.655 1.315 1.297 1.599L6.74 7.95h.001c.348.156.754.216 1.119.216s.771-.06 1.119-.215l3.93-1.746c.642-.283 1.298-.803 1.298-1.6 0-.795-.655-1.315-1.297-1.598L8.98 1.262h-.001z" fill="#17192A"/><path fill-rule="evenodd" clip-rule="evenodd" d="M2 6.583a.75.75 0 01.75.75.86.86 0 00.153.433.853.853 0 00.333.314l.002.001 4.525 2.013a.575.575 0 00.469.002l.003-.002 4.527-2.013h.002a.853.853 0 00.333-.315.857.857 0 00.153-.433.75.75 0 011.5 0c0 .457-.166.898-.396 1.25-.229.353-.565.684-.983.869h-.001l-4.522 2.011-.002.001a2.075 2.075 0 01-1.69.002v-.001L2.63 9.452c-.419-.185-.755-.516-.984-.868-.23-.353-.396-.794-.396-1.251a.75.75 0 01.75-.75z" fill="#17192A"/><path fill-rule="evenodd" clip-rule="evenodd" d="M2 9.917a.75.75 0 01.75.75c0 .32.19.614.489.748l4.524 2.013a.577.577 0 00.469.002l.003-.002 4.526-2.012a.823.823 0 00.489-.749.75.75 0 011.5 0c0 .919-.543 1.745-1.377 2.118l-4.525 2.012-.002.001a2.076 2.076 0 01-1.69.002v-.001l-4.529-2.014a2.321 2.321 0 01-1.377-2.118.75.75 0 01.75-.75z" fill="#17192A"/></svg>