<svg width="24" height="24" fill="none" xmlns="http://www.w3.org/2000/svg"><path fill-rule="evenodd" clip-rule="evenodd" d="M9 1.25c-2.574 0-4.57.51-5.905 1.845C1.76 4.429 1.25 6.426 1.25 9v6c0 2.574.51 4.57 1.845 5.905C4.429 22.24 6.426 22.75 9 22.75h6c2.574 0 4.57-.51 5.905-1.845C22.24 19.571 22.75 17.574 22.75 15V9c0-2.574-.51-4.57-1.845-5.905C19.571 1.76 17.574 1.25 15 1.25H9zM2.75 9c0-2.426.49-3.93 1.405-4.845C5.071 3.24 6.574 2.75 9 2.75h6c2.426 0 3.93.49 4.845 1.405.915.916 1.405 2.419 1.405 4.845v6c0 2.426-.49 3.93-1.405 4.845-.916.915-2.419 1.405-4.845 1.405H9c-2.426 0-3.93-.49-4.845-1.405C3.24 18.929 2.75 17.426 2.75 15V9zm8.521-1.06A.75.75 0 1010.21 9l2.992 3-2.992 3a.75.75 0 101.062 1.06l3.52-3.53a.75.75 0 000-1.06l-3.52-3.53z" fill="#6667AB"/></svg>