<svg width="130" height="24" fill="none" xmlns="http://www.w3.org/2000/svg"><path d="M22.438.39h4.36v23.162h-4.36V.39zM66.96 11.954h-4.639c-.621-1.129-1.963-1.695-4.017-1.695-.944 0-1.685.144-2.217.432-.532.288-.796.686-.796 1.193 0 .83.875 1.318 2.63 1.452l2.979.244c3.947.323 5.92 1.983 5.92 4.986 0 1.616-.685 2.923-2.057 3.928C63.39 23.498 61.516 24 59.134 24c-2.42 0-4.38-.487-5.866-1.452-1.487-.97-2.431-2.366-2.824-4.19h4.639c.507 1.361 1.973 2.043 4.395 2.043.875 0 1.59-.135 2.147-.398.552-.264.83-.651.83-1.159 0-.855-.855-1.372-2.56-1.556l-3.256-.313c-3.809-.393-5.713-2.018-5.713-4.882 0-1.616.671-2.923 2.009-3.927 1.337-1.005 3.162-1.507 5.469-1.507 4.668-.005 7.517 1.76 8.556 5.295zm5.056-8.552h4.36v3.704h4.987v3.808h-4.986v6.787c0 1.362.636 2.043 1.904 2.043h3.082v3.808h-3.117c-2.009 0-3.55-.467-4.624-1.402-1.074-.934-1.61-2.187-1.61-3.758v-7.478h-3.013V7.106h3.012V3.402h.005zm37.232 3.704h4.36v16.446h-4.36V7.106zm10.868-3.704h4.36v3.704h4.987v3.808h-4.987v6.787c0 1.362.637 2.043 1.904 2.043h3.083v3.808h-3.117c-2.009 0-3.55-.467-4.624-1.402-1.074-.934-1.611-2.187-1.611-3.758v-7.478h-3.013V7.106h3.013V3.402h.005zM0 .678h11.283c4.315 0 7.357 2.45 7.357 5.948 0 2.353-1.31 4.151-3.662 5.165 2.747.751 4.48 2.681 4.48 5.46 0 3.827-3.17 6.31-7.748 6.31H.005V.679H0zm11.118 9.155c2.095 0 3.203-.948 3.203-2.615 0-1.535-1.277-2.45-3.203-2.45H4.414v5.065h6.704zm.653 9.644c1.963 0 3.268-1.113 3.268-2.78 0-1.666-1.277-2.878-3.268-2.878H4.414v5.658h7.357zM85.709.678H96.99c4.315 0 7.358 2.45 7.358 5.948 0 2.353-1.31 4.151-3.662 5.165 2.746.751 4.479 2.681 4.479 5.46 0 3.827-3.169 6.31-7.747 6.31H85.713V.679h-.004zm11.118 9.155c2.094 0 3.202-.948 3.202-2.615 0-1.535-1.277-2.45-3.202-2.45h-6.705v5.065h6.705zm.653 9.644c1.962 0 3.268-1.113 3.268-2.78 0-1.666-1.278-2.878-3.268-2.878h-7.358v5.658h7.358z" fill="#fff"/><path fill-rule="evenodd" clip-rule="evenodd" d="M47.605 1.275l-1.119 1.328 1.176 1.04.001.002c.74.652.812 1.77.188 2.515v.001l-.002.001-1.159 1.376 1.491 1.273-2.045 2.396a8.63 8.63 0 011.036 4.41h.04v8.079H44.08V21.97a8.672 8.672 0 01-14.244-6.642 8.672 8.672 0 0111.989-8.012l1.941-2.273 1.42 1.21 1.041-1.237-1.175-1.04-.002-.002a1.808 1.808 0 01-.187-2.515v-.001l.002-.001L46.093 0l1.512 1.275zM43.697 15.33a5.194 5.194 0 00-5.19-5.19 5.194 5.194 0 00-5.191 5.19 5.194 5.194 0 005.19 5.19 5.194 5.194 0 005.19-5.19z" fill="#6667AB"/><path d="M109.248.563h4.36V4.46h-4.36V.563z" fill="#6667AB"/></svg>