<svg width="129" height="18" fill="none" xmlns="http://www.w3.org/2000/svg"><path fill-rule="evenodd" clip-rule="evenodd" d="M6.081 14.886h2.15V2.542H5.104C1.96 2.542.309 4.158.309 6.538c0 1.9.906 3.02 2.522 4.174L.025 14.886H2.35l3.127-4.671-1.084-.729C3.08 8.598 2.44 7.906 2.44 6.414c0-1.315.924-2.203 2.682-2.203h.96v10.675zm28.223-.604V12.56c-.657.444-1.758.835-2.788.835-1.545 0-2.131-.728-2.22-2.22h5.097v-1.12c0-3.108-1.368-4.28-3.481-4.28-2.576 0-3.801 1.972-3.801 4.672 0 3.108 1.527 4.618 4.227 4.618 1.35 0 2.345-.356 2.966-.782zm13.215.781c.977 0 1.67-.177 2.185-.55V12.79c-.534.373-1.173.604-2.06.604-1.51 0-2.133-1.172-2.133-3.02 0-1.936.764-2.93 2.15-2.93.817 0 1.616.284 2.042.55V6.201c-.444-.25-1.225-.427-2.273-.427-2.7 0-4.103 1.936-4.103 4.654 0 2.984 1.368 4.635 4.192 4.635zM14.944 5.952v3.535H12.12V5.951h-2.113v8.934h2.113v-3.73h2.824v3.73h2.114V5.952h-2.114zm11.652 7.264h-.942V5.952h-6.163v.764c0 2.184-.142 5.008-.888 6.5h-.657v3.712H19.9v-2.042h4.742v2.042h1.954v-3.712zm14.458 1.67h2.397l-3.392-4.814 2.984-4.12H40.91l-2.984 4.12v-4.12h-2.113v8.934h2.113v-4.387l3.127 4.387zM30.876 7.444c1.048 0 1.368.87 1.368 1.989v.178h-2.948c.053-1.421.568-2.167 1.58-2.167zm-7.335 5.772h-2.984c.586-1.35.746-3.783.746-5.328V7.62h2.238v5.595z" fill="#fff"/><path fill-rule="evenodd" clip-rule="evenodd" d="M54.456 8.97a8.881 8.881 0 1117.762 0 8.881 8.881 0 01-17.762 0z" fill="#1A4A7F"/><path d="M61.784 17.73v-.02h-.105v-.021h-.125v-.021h-.084v-.021h-.104v-.021h-.084v-.021h-.084v-.021h-.105v-.021h-.062v-.02h-.084v-.022h-.063v-.02H60.8v-.022h-.062v-.02h-.084v-.021h-.063v-.021h-.042v-.021h-.062v-.021h-.063v-.021h-.063v-.021h-.063v-.021h-.063v-.021h-.062v-.021h-.042v-.02h-.063v-.022h-.042v-.02h-.063v-.022h-.042v-.02h-.062v-.022h-.042v-.02h-.042v-.021h-.042v-.021h-.063v-.021h-.041v-.021h-.043v-.021h-.041v-.021h-.042v-.021h-.042v-.021h-.042v-.02h-.042v-.022h-.042v-.02h-.041v-.022h-.042v-.02h-.042v-.021h-.042v-.021h-.042v-.021h-.042v-.021h-.042v-.021h-.02v-.021h-.042v-.021h-.042v-.021h-.042v-.02h-.021v-.022h-.042v-.02h-.042V16.6h-.041v-.02h-.022v-.022h-.041v-.02h-.021v-.021h-.042v-.021h-.042v-.021h-.02v-.021h-.043v-.021h-.02v-.021h-.043v-.021h-.02v-.021h-.042v-.02h-.042v-.022h-.021v-.02h-.021v-.022h-.042v-.02h-.02v-.022h-.043v-.02h-.02v-.021h-.022v-.021h-.041v-.021H58.1v-.021h-.042v-.021h-.021v-.021h-.021v-.021h-.042v-.02h-.021v-.022h-.02v-.02h-.022v-.022h-.042v-.02h-.02v-.022h-.022v-.02h-.042v-.021h-.02v-.021h-.021v-.021h-.021v-.021h-.042v-.021h-.021v-.021h-.021v-.021h-.02v-.021h-.022v-.02h-.02v-.022h-.043v-.02h-.02v-.022h-.022v-.02h-.02v-.022h-.021v-.02h-.021v-.021h-.042v-.021h-.02v-.021h-.022v-.021h-.021v-.021h-.02v-.021h-.022v-.021h-.02v-.02h-.022v-.022h-.02v-.02H57.2v-.022h-.021v-.02h-.022v-.043h.022v-.02h.02v-.021h.021v-.021h.021v-.021h.021v-.021h.021v-.021h.021v-.021h.042v-.02h.021v-.022h.021v-.02h.02v-.022h.022v-.02h.02v-.022h.021v-.02h.021v-.021h.022v-.021h.02v-.021h.021v-.021h.042v-.021h.021v-.021h.021v-.021h.02v-.021h.022v-.02h.021v-.022h.02v-.02h.022v-.022h.02v-.02h.021v-.021h.021v-.021h.042v-.021h.021v-.021h.021v-.021h.021v-.021h.021v-.021h.021v-.021h.02v-.021h.022v-.02h.02v-.022h.022v-.02h.02v-.022h.043v-.02h.02v-.022h.021v-.02h.021v-.021h.021v-.021h.021v-.021h.021v-.021h.021v-.021h.021v-.021h.02v-.021h.022v-.02h.02v-.022h.043v-.02h.02v-.022h.022v-.02h.02v-.022h.021v-.02h.021v-.021h.021v-.021h.021v-.021h.02v-.021h.022v-.021h.021v-.021h.042v-.021h.02v-.021h.022v-.02h.02v-.022h.021v-.02h.021v-.022h.021v-.02h.021v-.022h.021v-.02h.021v-.021h.021v-.021h.042v-.021h.02v-.021h.022v-.021h.02v-.021h.022v-.021h.02v-.02H59v-.022h.02v-.02h.021v-.022h.021v-.02h.021v-.022h.042v-.02h.021v-.021h.021v-.021h.02v-.021h.022v-.021h.02v-.021h.022v-.021h.02v-.021h.022v-.02h.02v-.022h.021v-.02h.042v-.022h.021v-.02h.021v-.022h.021v-.02h.021v-.021h.021v-.021h.02v-.021h.022v-.021h.02v-.021h.022v-.021h.02v-.021h.043v-.021h.02v-.02h.021v-.022h.021v-.02h.021v-.022h.021v-.02h.02v-.021h.022v-.022h.021v-.02h.02v-.021h.022v-.021h.02v-.021h.042v-.021h.021v-.021h.021v-.021h.022v-.02h.02v-.022h.021v-.02h.021v-.022h.021v-.02h.02v-.022h.022v-.02h.02v-.021h.043v-.021h.02v-.021h.022v-.021h.02v-.021h.021v-.021h.021v-.021h.021v-.02h.021v-.022h.021v-.02h.021v-.022h.021v-.02h.042v-.022h.02v-.02h.022v-.021h.02v-.021h.022v-.021h.02v-.021h.022v-.021h.02v-.021h.021v-.021h.021v-.021h.021v-.02h.042v-.022h.021v-.02h.02v-.022h.022v-.02h.02v-.021h.022v-.021h.02v-.021h.021v-.021h.022v-.021h.02v-.021h.021v-.021h.042v-.021h.021v-.021h.02v-.02h.022v-.022h.02v-.02h.022v-.022h.02v-.02h.022v-.022h.02v-.02h.021v-.021h.021v-.021h.042v-.021h.021v-.021h.021v-.021h.021v-.021h.021v-.021h.021v-.02h.02v-.022h.022v-.02h.02v-.022h.022v-.02h.02v-.022h.022v-.02h.041v-.021h.021v-.021h.021v-.021h.021v-.021h.021v-.021h.021v-.021h.021v-.021h.021v-.021h.02v-.02h.022v-.022h.02v-.02h.042v-.022h.022v-.02h.02v-.022h.021v-.02h.021v-.021h.021v-.021h.021v-.021h.021v-.021h.02v-.021h.022v-.021h.021v-.021h.042v-.02h.02v-.022h.022v-.02h.02v-.022h.021v-.02h.021v-.022h.022v-.02h.02v-.021h.021v-.021h.021v-.021h.021v-.021h.042v-.021h.02v-.021h.022v-.021h.02v-.02h.022v-.022h.02v-.02h.021v-.022h.021v-.02h.021v-.022h.021v-.02h.021v-.022h.042v-.02h.021v-.021h.02v-.021h.022v-.021h.02v-.021h.022v-.021h.02v-.021h.022v-.02h.02v-.022h.021v-.02h.021v-.022h.042v-.02h.021v-.021h.02v-.021h.022v-.021h.021v-.021h.02v-.021h.022v-.021h.02v-.021h.022v-.021h.02v-.021h.021v-.02h.042v-.022h.021v-.02h.021v-.022h.021v-.02h.021v-.022h.021v-.02h.02v-.021h.022v-.021h.021V9.86h.02v-.02h.022v-.021h.02v-.021h.042v-.021h.021v-.02h.021v-.022h.021v-.02h.021v-.022h.021v-.02h.021V9.65h.021v-.02h.02v-.02h.022v-.021h.02v-.021h.043v-.021h.02v-.021h.022v-.021h.02v-.021h.021v-.021h.021v-.02h.021V9.42h.021V9.4h.021v-.022h.021v-.02h.021v-.022h.042v-.02h.02v-.021h.022v-.021h.02v-.021h.022v-.021h.02v-.021h.022V9.19h.02v-.02h.021v-.02h.021v-.022h.021v-.02h.042v-.022h.021v-.02h.02v-.022h.022v-.02h.02v-.021h.022v-.021h.02V8.96h.021v-.02h.022v-.021h.02v-.021h.021v-.021h.042v-.02h.021v-.022h.02v-.02h.022v-.022h.02v-.02h.022V8.75h.02v-.02h.022v-.02h.02v-.021h.021v-.021h.021v-.021h.042v-.021h.021v-.021h.021v-.021h.021v-.021h.021v-.02h.02V8.52h.022V8.5h.02v-.022h.022v-.02h.02v-.022h.022v-.02h.02v-.021h.042v-.021h.021v-.021h.021v-.021h.021v-.021h.021V8.29h.021v-.02h.021v-.02h.021v-.022h.02v-.02h.022v-.022h.02v-.02h.042v-.022h.022v-.02h.02v-.021h.021v-.021h.021V8.06h.021v-.02h-.063v.02h-.083v.022h-.084v.02h-.084v.021h-.083v.021h-.105v.021h-.084v.021h-.084v.021h-.083v.021h-.084v.021h-.084v.021h-.084v.021h-.083v.02h-.084v.022h-.104v.02h-.084v.022h-.084v.02h-.084v.022h-.083v.02h-.084v.021h-.084v.021h-.084V8.5h-.104v.021h-.084v.021h-.084v.021h-.084v.021h-.083v.02h-.084v.022h-.084v.02h-.083v.022h-.084v.02h-.105v.022h-.083v.02h-.084v.021h-.084v.021h-.084v.021h-.083v.021h-.084v.021h-.084v.021h-.084v.021h-.104v.02h-.084v.022h-.084v.02h-.083v.022h-.084v.02h-.084v.022h-.083v.02h-.084v.021h-.084v.021H60.8v.021h-.083v.021h-.084v.021h-.084v.021h-.125v.021h-.126v.02h-.523v-.02h-.167v-.02h-.084v-.022h-.084v-.02h-.063v-.022h-.083v-.02h-.084v-.022h-.042v-.02h-.042v-.021h-.042v-.021h-.042V8.96h-.062v-.02h-.042v-.021h-.042v-.021h-.042v-.021h-.02v-.02h-.043v-.022h-.02v-.02h-.043v-.022h-.02v-.02h-.042V8.75h-.021v-.02h-.042v-.02h-.021v-.021h-.042v-.021h-.021v-.021h-.02v-.021h-.022v-.021h-.02v-.021h-.022v-.021h-.02v-.02h-.021V8.52h-.021V8.5h-.021v-.022h-.021v-.02h-.021v-.022h-.021v-.02h-.021v-.021h-.02v-.021h-.022v-.021h-.021v-.042h-.02V8.29h-.022v-.02h-.02v-.042h-.022v-.02h-.02v-.022h-.021v-.042h-.021v-.02h-.021v-.021h-.021V8.06h-.021v-.042h-.021v-.042h-.021v-.042h-.02v-.042h-.022V7.85h-.02v-.04h-.022v-.042h-.02v-.042h-.022v-.063h-.02V7.6h-.022v-.063h-.02v-.041h-.021v-.084h-.021v-.105h-.021v-.146h-.021v-.168h-.021v-.335h.02V6.47h.022v-.126h.02v-.083h.022v-.084h.02v-.063h.021V6.03h.021v-.062h.021v-.042h.021v-.042h.021v-.063h.021V5.78h.021v-.042h.021v-.041h.021v-.042h.02v-.042h.022V5.57h.02v-.02h.022v-.043h.02v-.02h.022v-.043h.02v-.02h.021v-.042h.021V5.36h.021v-.042h.021v-.021h.021v-.021h.021v-.02h.021v-.022h.021v-.02h.02v-.022h.022v-.02h.02V5.15h.022v-.04h.02v-.021h.022v-.021h.02v-.021h.021v-.021h.021v-.021h.042v-.021h.021v-.02h.02v-.022h.022v-.02h.042V4.9h.02v-.02h.022v-.022h.041v-.02h.021v-.021h.021v-.021h.021v-.021h.042v-.021h.042v-.021h.042v-.021h.042V4.69h.042v-.02h.02v-.02h.042v-.022h.042v-.02h.042v-.022h.042v-.02h.063v-.022h.063v-.02h.062v-.021h.042v-.021h.084V4.46h.084v-.02h.084v-.021h.083v-.021h.084v-.021h.084v-.02h.084v-.022h.083v-.02h.105v-.022h.083v-.02h.084V4.25h.084v-.02h.084v-.02h.083v-.021h.084v-.021h.084v-.021h.084v-.021h.104v-.021h.084v-.021h.084v-.021h.083v-.02h.084V4.02h.084V4h.083v-.022h.084v-.02h.105v-.022h.084v-.02h.083v-.021h.084v-.021h.084v-.021h.083v-.021h.084v-.021h.084V3.79h.084v-.02h.104v-.02h.084v-.022h.084v-.02h.083v-.022h.084v-.02h.084v-.022h.083v-.02h.084v-.021h.084v-.021h.105V3.56h.083v-.02h.084v-.021h.084v-.021h.084v-.021h.083v-.02h.084v-.022h.084v-.02h.084v-.022h.104v-.02h.084V3.35h.083v-.02h.084v-.02h.084v-.021h.084v-.021h.083v-.021h.084v-.021h.105v-.021h.084v-.021h.083v-.021h.084v-.02h.084V3.12h.083V3.1h.084v-.022h.084v-.02h.083v-.022h.105v-.02h.084v-.021h.084v-.021h.083v-.021h.084v-.021h.084v-.021h.084V2.89h.083v-.02h.084v-.02h.105v-.022h.083v-.02h.084v-.022h.084v-.02h.083v-.022h.084v-.02h.084v-.021h.084v-.021h.104V2.66h.084v-.02h.084v-.021h.084v-.021h.083v-.021h.084v-.021h.084v-.02h.083v-.022h.084v-.02h.105v-.022h.083v-.02h.084V2.43h.084v-.02h.084v-.021h.083v-.021h.084v-.021h.084v-.021h.084v-.021h.104v-.021h.084v-.02h.084v-.022h.083v-.02h.084V2.2h.084v-.02h.083v-.022h.084v-.02h.042v.02h.021v.021h.042V2.2h.02v.021h.022v.021h.02v.021h.022v.021h.02v.02h.021v.022h.042v.02h.021v.022h.021v.02h.02v.022h.022v.02h.021v.021h.02v.021h.022v.021h.02v.021h.022v.021h.02v.021h.021v.021h.022v.02h.02v.022h.021v.02h.042v.022h.021v.02h.02v.022h.022v.041h.02v.021h.022v.021h.02v.021h.022v.021h.02v.021h.022v.021h.02v.021h.021v.02h.021v.022h.021v.02h.021v.022h.021v.02h.021v.022h.02v.041h.022v.021h.02V3.1h.022v.021h.02v.021h.022v.021h.02v.021h.022v.042h.02v.02h.021v.022h.021v.02h.021v.022h.02v.041h.022v.021h.021v.021h.02v.021h.022v.042h.02v.021h.022v.021h.02v.02h.021v.043h.022v.02h.02v.022h.021v.041h.021v.021h.021v.021h.021v.042h.021v.021h.02v.042h.022v.02h.021v.022h.02v.042h.022v.02h.02v.042h.022v.021h.02v.021h.021v.042h.021v.021h.021v.042h.021v.042h.021v.02h.021v.043h.021v.02h.02v.042h.022v.021h.02v.042h.022v.042h.02v.021h.022v.042h.02v.042h.021v.02h.021v.043h.021v.041h.021v.042h.021v.021h.021v.042h.021v.042h.021v.042h.02v.042h.022v.041h.02v.042h.022v.042h.02v.042h.022v.042h.02v.02h.021v.043h.021v.042h.021v.062h.021v.042h.021v.042h.02v.042h.022v.063h.021v.042h.02v.041h.022v.042h.02v.063h.022v.042h.02v.063h.021v.042h.022v.062h.02V5.8h.021v.063h.021v.063h.021v.042h.021v.062h.02v.063h.022v.063h.02v.063h.022v.063h.02v.083h.022v.063h.02v.084h.022v.063h.02v.083h.021v.063h.021v.084h.021v.105h.021v.083h.021v.084h.021v.105h.02v.104h.022v.126h.02v.125h.022v.126h.02v.167h.022v.168h.02v.23h.021v.314h.021v.837h-.02v.314h-.021v.23h-.021v.168h-.021v.167h-.021v.147h-.021v.104h-.021v.126h-.021v.105h-.021v.104h-.02v.084h-.022v.105h-.02v.084h-.022v.083h-.02v.084h-.022v.063h-.02v.084h-.021v.062h-.021v.084h-.021v.063h-.021v.063h-.021v.062h-.021v.063h-.021v.063h-.021v.063h-.02v.063h-.022v.041h-.02v.063h-.022v.042h-.02v.063H71.6v.063h-.02v.042h-.021v.062h-.021v.042h-.021v.042h-.021v.063h-.021v.042h-.02v.041h-.022v.042h-.021v.042h-.02v.063h-.022v.042h-.02v.042h-.022v.042h-.02v.041h-.021v.042h-.022v.042h-.02v.042h-.021v.042h-.021v.042h-.021v.02h-.021v.043h-.02v.041h-.022v.042h-.02v.042h-.022v.021h-.02v.042h-.022v.042h-.02v.042h-.022v.02h-.02v.042h-.021v.042h-.021v.021h-.021v.042h-.021v.021h-.021v.042h-.021v.042h-.02v.02h-.022v.043h-.02v.02h-.022v.042h-.02v.021h-.022v.042h-.02v.021h-.021v.042h-.021v.02h-.021v.043h-.021v.02h-.021v.022h-.02v.041h-.022v.021h-.021v.042h-.02v.021h-.022v.021h-.02v.042h-.022v.02h-.02v.022h-.021v.042h-.022v.02h-.02v.022h-.021v.02h-.021v.042h-.021v.021h-.021v.021h-.021v.021h-.02v.042h-.022v.02h-.021v.022h-.02v.02h-.022v.043h-.02v.02h-.021v.022h-.021v.02h-.021v.021h-.021v.021h-.021v.021h-.021v.042h-.021v.021h-.021v.02h-.021v.022h-.02v.02h-.022v.022h-.02v.02h-.022v.022h-.02v.02h-.022v.021h-.02v.021h-.021v.042h-.021v.021h-.021v.021h-.021v.021h-.021v.02h-.021v.022h-.021v.02h-.021v.022h-.02v.02h-.022v.022h-.02v.02h-.022v.021h-.02v.021h-.022v.021h-.02v.021h-.042v.021h-.021v.021h-.021v.021h-.021v.02h-.02v.022h-.022v.02h-.021v.022h-.02v.02h-.022v.022h-.02v.02h-.022v.021h-.041v.021h-.022v.021h-.02v.021h-.021v.021h-.021v.021h-.021v.021h-.021v.021h-.042v.02h-.02v.022h-.022v.02h-.02v.022h-.043v.02h-.02v.021h-.021v.021h-.021v.021h-.042v.021h-.021v.021h-.021v.021h-.021v.021h-.042v.021h-.02v.021h-.022v.02h-.042v.022h-.02v.02h-.022v.022h-.041v.02h-.021v.022h-.042v.02h-.021v.021h-.021v.021h-.042v.021h-.02v.021h-.043v.021h-.02v.021h-.043v.021h-.02v.02h-.042v.022h-.021v.02h-.042v.022h-.021v.02h-.042v.022h-.042v.02h-.02v.021h-.042v.021h-.022v.021h-.041v.021h-.042v.021h-.021v.021h-.042v.021h-.042v.021h-.042v.02h-.02v.022h-.042v.02h-.042v.022h-.042v.02h-.042v.021h-.042v.021h-.02v.021h-.043v.021h-.042v.021h-.041v.021h-.042v.021h-.042v.021h-.042v.021h-.042v.02h-.042v.022h-.063v.02h-.041v.022h-.042v.02h-.042v.022h-.063v-.042h-.02v-.356h.02v-.188h.021v-.105h.021v-.084h.021v-.084h.021v-.083h.02v-.063h.022v-.063h.02v-.063h.021v-.063h.021v-.062h.022v-.063h.02v-.063h.021v-.063h.021v-.062h.021v-.063h.021v-.063h.021v-.063h.02v-.063h.022v-.062h.021v-.063h.02v-.063h.022v-.063h.02v-.042h.022v-.062h.02v-.063h.021v-.063h.021V14.8h.021v-.063h.021v-.062h.021v-.063h.021v-.063h.021v-.063h.02v-.063h.022v-.062h.02v-.063h.022v-.063h.02v-.063h.022v-.062h.02v-.063h.021v-.063h.021v-.063h.021v-.063h.021v-.062h.021v-.063h.021v-.063h.021v-.063h.021v-.063h.02v-.062h.022v-.063h.02v-.063h.022v-.063h.02v-.063h.022v-.062H68v-.063h.022v-.063h.02v-.063h.021v-.063h.021v-.062h.021v-.063h.02v-.063h.022v-.063h.021v-.062h.02v-.063h.022v-.042h.02v-.063h.022v-.063h.02v-.062h.021v-.063h.022v-.063h.02v-.063h.021v-.063h.021v-.062h.021v-.063h.021v-.063h.02v-.063h.022v-.063h.02v-.041h-.02v.02h-.021v.021h-.02v.021h-.022v.021h-.042v.021h-.02v.021h-.021v.021h-.022v.021h-.02v.021h-.021v.02h-.021v.022h-.021v.02h-.021v.022h-.021v.02h-.02v.022h-.022v.02h-.042v.021h-.02v.021h-.022v.021h-.02v.021H68v.021h-.021v.021h-.022v.021h-.02v.02h-.021v.022h-.021v.02h-.021v.022h-.042v.02h-.02v.022h-.022v.02h-.02v.021h-.022v.021h-.02v.021h-.022v.021h-.02v.021h-.021v.021h-.021v.021h-.021v.02h-.042v.022h-.021v.02h-.021v.022h-.02v.02h-.022v.022h-.02v.02h-.022v.021h-.02v.021h-.022v.021h-.02v.021h-.022v.021h-.041v.021h-.021v.021h-.021v.02h-.02v.022h-.022v.02h-.021v.022h-.02v.02h-.022v.022h-.02v.02h-.022v.021h-.02v.021h-.043v.021h-.02V13h-.021v.021h-.021v.021h-.021v.021h-.021v.021h-.02v.02h-.022v.022h-.021v.02h-.02v.022h-.022v.02h-.042v.021h-.02v.021h-.021v.021h-.021v.021h-.021v.021h-.021v.021h-.021v.021h-.021v.021h-.021v.021h-.02v.02h-.022v.022h-.02v.02h-.043v.022h-.02v.02h-.022v.022h-.02v.02h-.021v.021h-.021v.021h-.021v.021h-.021v.021h-.021v.021h-.021v.021h-.021v.021h-.042v.021h-.02v.02h-.022v.022h-.02v.02h-.021v.022H66.2v.02h-.02v.021h-.021v.021h-.021v.021h-.021v.021h-.021v.021h-.042v.021h-.021v.021h-.021v.021h-.02v.021h-.022v.02h-.02v.022h-.022v.02h-.02v.022h-.021v.02h-.022v.022h-.02v.02h-.042v.021h-.021v.021h-.021v.021h-.02v.021h-.022v.021h-.02v.021h-.022v.021h-.02v.02h-.022v.022h-.02v.02h-.021v.022h-.042v.02h-.021v.022h-.021v.02h-.021v.021h-.021v.021h-.021v.021h-.02v.021h-.022v.021h-.02v.021h-.022v.021h-.02v.021H65.3v.02h-.02v.022h-.021v.02h-.021v.022h-.021v.02h-.021v.021h-.02v.022h-.022v.02h-.021v.021h-.02v.021h-.022v.021h-.042v.021h-.02v.021h-.021v.021h-.022v.02h-.02v.022h-.021v.02h-.021v.022h-.021v.02h-.021v.022h-.02v.02h-.022v.021h-.021v.021h-.042v.021h-.02v.021h-.022v.021h-.02v.021h-.021v.021h-.021v.02h-.021v.022h-.021v.02h-.021v.022h-.021v.02h-.021v.022h-.042v.02h-.02v.021h-.022v.021h-.02v.021h-.022v.021h-.02v.021H64.4v.021h-.02v.021h-.021v.02h-.021v.022h-.021v.02h-.042v.022h-.021v.02h-.021v.022h-.02v.02h-.022v.021h-.02v.021h-.022v.021h-.02v.021h-.022v.021h-.02v.021h-.021v.021h-.042v.021h-.021v.02h-.021v.022h-.02v.02h-.022v.022h-.021v.02h-.02v.021h-.022v.021h-.02v.021h-.021v.021h-.021v.021h-.043v.021h-.02v.021h-.021v.021h-.021v.021h-.021v.02h-.021v.022h-.02v.02h-.022v.022h-.021v.02h-.02v.022h-.022v.02h-.042v.021h-.02v.021h-.021v.021h-.021v.021h-.021v.021h-.021v.021h-.021v.021h-.021v.02h-.021v.022h-.02v.02h-.022v.022h-.02v.02h-.043v.022h-.02v.02h-.022v.021h-.02v.021h-.021v.021h-.021v.021h-.021v.021h-.021v.021h-.021v.021h-.021v.021h-.021v.02h-.042v.022h-.02v.02h-.022v.022h-.02v.02h-.021v.021h-.022v.021h-.02v.021h-.021v.021h-.021v.021h-.021v.021h-.021v.021h-.042v.021h-.021v.021h-.021v.02h-.02v.022h-.022v.02h-.02v.022h-.022v.02h-.02v.022h-.021v.02h-.021v.021h-.021v.021h-.042v.021h-.021v.021h-.021v.021h-.02v.021h-.022v.021h-.02v.021h-.022v.02h-.02v.022h-.022v.02h-.02v.022h-.021v.02h-.042v.021h-.021v.021h-.021v.021h-.021v.021h-.021v.021h-.021v.021h-.02v.021h-.022v.021h-.02v.021h-.022v.02h-.02v.022h-.043v.02h-.02v.022h-.021v.02h-.021v.022h-.021v.02" fill="url(#paint0_linear_175_1257)"/><path fill-rule="evenodd" clip-rule="evenodd" d="M78.166 17.458v-2.575h6.199v2.575h2.007v-4.245h-1.155V2.54h-7.193l-.178 5.08c-.089 2.93-.32 4.653-.888 5.594h-.8v4.245h2.008zm1.563-9.555l.124-3.695h3.215v9.005h-4.085c.373-.852.657-2.38.746-5.31zm7.879-1.954v8.934h1.83l3.267-5.524v5.524h2.06V5.949h-1.829l-3.268 5.524V5.949h-2.06zm10.886 0h-1.953v11.51h2.113v-3.624c.533.8 1.315 1.225 2.22 1.225 2.061 0 3.482-1.652 3.482-4.653 0-2.984-1.386-4.636-3.375-4.636-.994 0-1.811.462-2.38 1.332l-.106-1.154zm1.847 7.442c-1.119 0-1.687-.906-1.687-2.966 0-2.079.604-2.984 1.794-2.984 1.154 0 1.723.905 1.723 2.966 0 2.078-.604 2.984-1.83 2.984zm12.265.888v-1.723c-.657.444-1.758.835-2.788.835-1.546 0-2.131-.728-2.22-2.22h5.097v-1.12c0-3.108-1.368-4.28-3.481-4.28-2.576 0-3.801 1.972-3.801 4.671 0 3.109 1.527 4.619 4.227 4.619 1.35 0 2.345-.356 2.966-.782zm-3.427-6.838c1.047 0 1.367.87 1.367 1.989v.178h-2.948c.053-1.421.568-2.167 1.581-2.167zm10.172 7.442h2.398l-3.393-4.814 2.984-4.12h-2.131l-2.984 4.12V5.95h-2.114v8.934h2.114v-4.387l3.126 4.387zm9.397-7.265v-1.67h-7.087v1.67h2.487v7.265h2.113V7.618h2.487z" fill="#fff"/><defs><linearGradient id="paint0_linear_175_1257" x1="76.065" y1=".675" x2="45.279" y2="29.093" gradientUnits="userSpaceOnUse"><stop stop-color="#FFB800"/><stop offset="1" stop-color="#FFF11C"/></linearGradient></defs></svg>