<svg width="129" height="18" viewBox="0 0 129 18" fill="none" xmlns="http://www.w3.org/2000/svg">
<path fill-rule="evenodd" clip-rule="evenodd" d="M6.0814 14.8858H8.23047V2.54175H5.10455C1.96076 2.54175 0.308911 4.15795 0.308911 6.53803C0.308911 8.43846 1.21472 9.55746 2.831 10.7119L0.0247192 14.8858H2.35149L5.4775 10.2145L4.39408 9.48633C3.07963 8.59828 2.44028 7.90572 2.44028 6.41362C2.44028 5.09919 3.36399 4.21102 5.12235 4.21102L6.0814 4.21126V14.8858ZM34.3044 14.2821V12.5593C33.6471 13.0033 32.546 13.3942 31.5158 13.3942C29.9705 13.3942 29.3845 12.6661 29.2956 11.174L34.3931 11.1738V10.0547C34.3931 6.94636 33.0253 5.77425 30.9116 5.77425C28.3363 5.77425 27.1107 7.74593 27.1107 10.4456C27.1107 13.554 28.6381 15.0637 31.3379 15.0637C32.6879 15.0637 33.6829 14.7083 34.3044 14.2821ZM47.5189 15.0635C48.4959 15.0635 49.1883 14.8858 49.7037 14.5128V12.7901C49.1705 13.1631 48.5311 13.394 47.6432 13.394C46.1334 13.394 45.5115 12.2217 45.5115 10.3745C45.5115 8.43846 46.2755 7.44376 47.6607 7.44376C48.4777 7.44376 49.277 7.72796 49.7033 7.99448V6.20055C49.2595 5.95191 48.4777 5.77425 47.4299 5.77425C44.73 5.77425 43.327 7.71028 43.327 10.4277C43.327 13.4117 44.6948 15.0635 47.5189 15.0635ZM14.9444 5.9519V9.48657L12.1202 9.48633V5.95173L10.0067 5.9519V14.8858H12.1202V11.1558L14.9444 11.1561V14.8858H17.0578V5.9519H14.9444ZM26.596 13.2162H25.6545V5.9519H19.4912V6.71562C19.4912 8.90028 19.3491 11.7244 18.6032 13.2162H17.946V16.9284H19.8996V14.8858H24.6422V16.9284H26.596V13.2162ZM41.0536 14.8858H43.4514L40.0588 10.0724L43.0428 5.95173L40.9115 5.9519L37.9274 10.0726V5.9519H35.8139V14.8858H37.9274V10.4987L41.0536 14.8858ZM30.8762 7.44376C31.9242 7.44376 32.244 8.31408 32.244 9.43302V9.61078H29.2956C29.3489 8.18991 29.864 7.44376 30.8762 7.44376ZM23.5408 13.2162H20.5569C21.1429 11.8663 21.3029 9.43302 21.3029 7.88777V7.62125L23.5408 7.62152V13.2162Z" fill="white"/>
<path fill-rule="evenodd" clip-rule="evenodd" d="M54.4559 8.97046C54.4559 4.06585 58.432 0.0895996 63.3368 0.0895996C68.2412 0.0895996 72.2177 4.06568 72.2177 8.97046C72.2177 13.8749 68.2416 17.8513 63.3368 17.8513C58.4323 17.8513 54.4559 13.8752 54.4559 8.97046Z" fill="#1A4A7F"/>
<path d="M61.7842 17.7305V17.7096H61.6794V17.6886H61.5541V17.6677H61.4702V17.6468H61.3658V17.6258H61.2819V17.6049H61.1983V17.584H61.0935V17.563H61.0309V17.5421H60.9469V17.5212H60.8843V17.5003H60.8004V17.4793H60.7377V17.4584H60.6542V17.4375H60.5911V17.4165H60.5494V17.3956H60.4867V17.3746H60.4237V17.3537H60.361V17.3328H60.2984V17.3119H60.2354V17.291H60.1727V17.27H60.1309V17.2491H60.0679V17.2282H60.0261V17.2072H59.9635V17.1863H59.9213V17.1653H59.8587V17.1444H59.8169V17.1235H59.7751V17.1026H59.733V17.0817H59.6703V17.0607H59.6285V17.0398H59.5864V17.0189H59.5446V16.9979H59.5029V16.977H59.4611V16.956H59.419V16.9351H59.3772V16.9142H59.3354V16.8933H59.2936V16.8724H59.2515V16.8514H59.2097V16.8305H59.168V16.8095H59.1262V16.7886H59.0844V16.7677H59.0423V16.7467H59.0214V16.7258H58.9796V16.7049H58.9378V16.684H58.8957V16.6631H58.8748V16.6421H58.8331V16.6212H58.7913V16.6002H58.7495V16.5793H58.7283V16.5584H58.6865V16.5374H58.6656V16.5165H58.6238V16.4956H58.582V16.4747H58.5612V16.4538H58.519V16.4328H58.4981V16.4119H58.4564V16.3909H58.4355V16.37H58.3937V16.3491H58.3516V16.3281H58.3307V16.3072H58.3098V16.2863H58.268V16.2654H58.2471V16.2444H58.205V16.2235H58.1841V16.2026H58.1632V16.1816H58.1215V16.1607H58.1006V16.1398H58.0588V16.1188H58.0379V16.0979H58.0167V16.077H57.9749V16.0561H57.954V16.0351H57.9331V16.0142H57.9122V15.9933H57.8704V15.9723H57.8492V15.9514H57.8283V15.9305H57.7865V15.9095H57.7657V15.8886H57.7448V15.8677H57.7239V15.8468H57.6818V15.8258H57.6609V15.8049H57.64V15.784H57.6191V15.763H57.5982V15.7421H57.5773V15.7212H57.5355V15.7002H57.5146V15.6793H57.4934V15.6584H57.4725V15.6375H57.4516V15.6165H57.4307V15.5956H57.389V15.5747H57.3681V15.5537H57.3472V15.5328H57.326V15.5119H57.3051V15.4909H57.2842V15.47H57.2633V15.4491H57.2424V15.4282H57.2215V15.4072H57.2006V15.3863H57.1797V15.3654H57.1585V15.3235H57.1797V15.3026H57.2006V15.2816H57.2215V15.2607H57.2424V15.2398H57.2633V15.2189H57.2842V15.1979H57.3051V15.177H57.3472V15.1561H57.3681V15.1351H57.389V15.1142H57.4099V15.0933H57.4307V15.0723H57.4516V15.0514H57.4725V15.0305H57.4934V15.0096H57.5146V14.9886H57.5355V14.9677H57.5564V14.9468H57.5982V14.9258H57.6191V14.9049H57.64V14.884H57.6609V14.863H57.6818V14.8421H57.703V14.8212H57.7239V14.8003H57.7448V14.7793H57.7657V14.7584H57.7865V14.7375H57.8074V14.7165H57.8492V14.6956H57.8704V14.6747H57.8913V14.6537H57.9122V14.6328H57.9331V14.6119H57.954V14.591H57.9749V14.57H57.9958V14.5491H58.0167V14.5282H58.0379V14.5072H58.0588V14.4863H58.1006V14.4654H58.1215V14.4444H58.1423V14.4235H58.1632V14.4026H58.1841V14.3817H58.205V14.3607H58.2262V14.3398H58.2471V14.3189H58.268V14.2979H58.2889V14.277H58.3098V14.2561H58.3307V14.2351H58.3725V14.2142H58.3937V14.1933H58.4146V14.1724H58.4355V14.1514H58.4564V14.1305H58.4773V14.1096H58.4981V14.0886H58.519V14.0677H58.5399V14.0468H58.5612V14.0258H58.582V14.0049H58.6238V13.984H58.6447V13.963H58.6656V13.9421H58.6865V13.9212H58.7074V13.9003H58.7283V13.8793H58.7495V13.8584H58.7704V13.8374H58.7913V13.8165H58.8122V13.7956H58.8331V13.7747H58.8748V13.7537H58.8957V13.7328H58.9169V13.7119H58.9378V13.691H58.9587V13.67H58.9796V13.6491H59.0005V13.6281H59.0214V13.6072H59.0423V13.5863H59.0632V13.5654H59.0844V13.5444H59.1262V13.5235H59.1471V13.5026H59.168V13.4817H59.1888V13.4607H59.2097V13.4398H59.2306V13.4188H59.2515V13.3979H59.2727V13.377H59.2936V13.3561H59.3145V13.3351H59.3354V13.3142H59.3772V13.2933H59.3981V13.2723H59.419V13.2514H59.4402V13.2305H59.4611V13.2095H59.482V13.1886H59.5029V13.1677H59.5238V13.1468H59.5446V13.1258H59.5655V13.1049H59.5864V13.084H59.6285V13.063H59.6494V13.0421H59.6703V13.0212H59.6912V13.0002H59.7121V12.9793H59.733V12.9584H59.7539V12.9375H59.7751V12.9165H59.796V12.8956H59.8169V12.8747H59.8378V12.8537H59.8587V12.8328H59.9004V12.8119H59.9213V12.7909H59.9422V12.77H59.9635V12.7491H59.9843V12.7282H60.0052V12.7072H60.0261V12.6863H60.047V12.6654H60.0679V12.6444H60.0888V12.6235H60.1097V12.6026H60.1518V12.5816H60.1727V12.5607H60.1936V12.5398H60.2145V12.5189H60.2354V12.4979H60.2562V12.477H60.2771V12.4561H60.2984V12.4351H60.3193V12.4142H60.3401V12.3933H60.361V12.3723H60.4028V12.3514H60.4237V12.3305H60.4446V12.3096H60.4655V12.2886H60.4867V12.2677H60.5076V12.2468H60.5285V12.2258H60.5494V12.2049H60.5703V12.184H60.5911V12.163H60.612V12.1421H60.6542V12.1212H60.6751V12.1003H60.6959V12.0793H60.7168V12.0584H60.7377V12.0375H60.7586V12.0165H60.7795V11.9956H60.8004V11.9747H60.8216V11.9537H60.8425V11.9328H60.8634V11.9119H60.9052V11.891H60.9261V11.87H60.9469V11.8491H60.9678V11.8282H60.9887V11.8072H61.01V11.7863H61.0309V11.7654H61.0517V11.7444H61.0726V11.7235H61.0935V11.7026H61.1144V11.6816H61.1562V11.6607H61.1774V11.6398H61.1983V11.6189H61.2192V11.5979H61.2401V11.577H61.261V11.5561H61.2819V11.5351H61.3027V11.5142H61.3236V11.4933H61.3449V11.4723H61.3658V11.4514H61.3866V11.4305H61.4284V11.4096H61.4493V11.3886H61.4702V11.3677H61.4911V11.3468H61.512V11.3258H61.5332V11.3049H61.5541V11.284H61.575V11.263H61.5959V11.2421H61.6168V11.2212H61.6377V11.2003H61.6794V11.1793H61.7007V11.1584H61.7216V11.1375H61.7424V11.1165H61.7633V11.0956H61.7842V11.0747H61.8051V11.0537H61.826V11.0328H61.8469V11.0119H61.8681V10.991H61.889V10.97H61.9308V10.9491H61.9517V10.9282H61.9726V10.9072H61.9935V10.8863H62.0143V10.8654H62.0352V10.8444H62.0565V10.8235H62.0774V10.8026H62.0982V10.7817H62.1191V10.7607H62.14V10.7398H62.1818V10.7188H62.2027V10.6979H62.2239V10.677H62.2448V10.6561H62.2657V10.6351H62.2866V10.6142H62.3075V10.5933H62.3284V10.5724H62.3493V10.5514H62.3701V10.5305H62.3914V10.5095H62.4332V10.4886H62.454V10.4677H62.4749V10.4468H62.4958V10.4258H62.5167V10.4049H62.5376V10.384H62.5585V10.363H62.5797V10.3421H62.6006V10.3212H62.6215V10.3002H62.6424V10.2793H62.6842V10.2584H62.705V10.2375H62.7259V10.2165H62.7472V10.1956H62.7681V10.1747H62.7889V10.1537H62.8098V10.1328H62.8307V10.1119H62.8516V10.0909H62.8725V10.07H62.8934V10.0491H62.9355V10.0282H62.9564V10.0072H62.9773V9.98629H62.9982V9.96537H63.0191V9.94445H63.04V9.92352H63.0608V9.90256H63.0817V9.88164H63.103V9.86072H63.1239V9.8398H63.1447V9.81887H63.1656V9.79791H63.2074V9.77699H63.2283V9.75607H63.2492V9.73514H63.2704V9.71422H63.2913V9.69326H63.3122V9.67234H63.3331V9.65142H63.354V9.63049H63.3749V9.60957H63.3958V9.58861H63.4166V9.56769H63.4588V9.54677H63.4797V9.52584H63.5005V9.50492H63.5214V9.48396H63.5423V9.46304H63.5632V9.44212H63.5841V9.42119H63.605V9.40027H63.6262V9.37931H63.6471V9.35839H63.668V9.33746H63.7098V9.31654H63.7307V9.29558H63.7516V9.27466H63.7724V9.25374H63.7937V9.23281H63.8146V9.21189H63.8355V9.19093H63.8563V9.17001H63.8772V9.14909H63.8981V9.12816H63.919V9.10724H63.9611V9.08628H63.982V9.06536H64.0029V9.04444H64.0238V9.02351H64.0447V9.00259H64.0656V8.98163H64.0865V8.96071H64.1074V8.93979H64.1286V8.91886H64.1495V8.89794H64.1704V8.87698H64.2121V8.85606H64.233V8.83513H64.2539V8.81421H64.2748V8.79329H64.2957V8.77233H64.3169V8.75141H64.3378V8.73048H64.3587V8.70956H64.3796V8.68864H64.4005V8.66768H64.4214V8.64676H64.4632V8.62583H64.4844V8.60491H64.5053V8.58399H64.5262V8.56303H64.547V8.54211H64.5679V8.52118H64.5888V8.50026H64.6097V8.47934H64.6306V8.45838H64.6518V8.43745H64.6727V8.41653H64.6936V8.39561H64.7354V8.37469H64.7563V8.35373H64.7772V8.3328H64.7981V8.31188H64.819V8.29096H64.8402V8.27003H64.8611V8.24908H64.882V8.22815H64.9028V8.20723H64.9237V8.18631H64.9446V8.16538H64.9864V8.14443H65.0076V8.1235H65.0285V8.10258H65.0494V8.08166H65.0703V8.06073H65.0912V8.03977H65.0285V8.06073H64.9446V8.08166H64.8611V8.10258H64.7772V8.1235H64.6936V8.14443H64.5888V8.16538H64.5053V8.18631H64.4214V8.20723H64.3378V8.22815H64.2539V8.24908H64.1704V8.27003H64.0865V8.29096H64.0029V8.31188H63.919V8.3328H63.8146V8.35373H63.7307V8.37469H63.6471V8.39561H63.5632V8.41653H63.4797V8.43745H63.3958V8.45838H63.3122V8.47934H63.2283V8.50026H63.1239V8.52118H63.04V8.54211H62.9564V8.56303H62.8725V8.58399H62.7889V8.60491H62.705V8.62583H62.6215V8.64676H62.5376V8.66768H62.454V8.68864H62.3493V8.70956H62.2657V8.73048H62.1818V8.75141H62.0982V8.77233H62.0143V8.79329H61.9308V8.81421H61.8469V8.83513H61.7633V8.85606H61.6794V8.87698H61.575V8.89794H61.4911V8.91886H61.4075V8.93979H61.3236V8.96071H61.2401V8.98163H61.1562V9.00259H61.0726V9.02351H60.9887V9.04444H60.9052V9.06536H60.8004V9.08628H60.7168V9.10724H60.6329V9.12816H60.5494V9.14909H60.4237V9.17001H60.2984V9.19093H59.7751V9.17001H59.6077V9.14909H59.5238V9.12816H59.4402V9.10724H59.3772V9.08628H59.2936V9.06536H59.2097V9.04444H59.168V9.02351H59.1262V9.00259H59.0844V8.98163H59.0423V8.96071H58.9796V8.93979H58.9378V8.91886H58.8957V8.89794H58.8539V8.87698H58.8331V8.85606H58.7913V8.83513H58.7704V8.81421H58.7283V8.79329H58.7074V8.77233H58.6656V8.75141H58.6447V8.73048H58.6029V8.70956H58.582V8.68864H58.5399V8.66768H58.519V8.64676H58.4981V8.62583H58.4773V8.60491H58.4564V8.58399H58.4355V8.56303H58.4146V8.54211H58.3937V8.52118H58.3725V8.50026H58.3516V8.47934H58.3307V8.45838H58.3098V8.43745H58.2889V8.41653H58.268V8.39561H58.2471V8.37469H58.2262V8.35373H58.205V8.31188H58.1841V8.29096H58.1632V8.27003H58.1423V8.22815H58.1215V8.20723H58.1006V8.18631H58.0797V8.14443H58.0588V8.1235H58.0379V8.10258H58.0167V8.06073H57.9958V8.01885H57.9749V7.97701H57.954V7.93512H57.9331V7.89328H57.9122V7.85143H57.8913V7.80955H57.8704V7.7677H57.8492V7.72582H57.8283V7.66305H57.8074V7.60025H57.7865V7.53748H57.7657V7.4956H57.7448V7.41187H57.7239V7.30722H57.703V7.16072H57.6818V6.99327H57.6609V6.65839H57.6818V6.47001H57.703V6.34444H57.7239V6.26071H57.7448V6.17698H57.7657V6.11421H57.7865V6.03049H57.8074V5.96768H57.8283V5.92584H57.8492V5.88399H57.8704V5.82119H57.8913V5.77934H57.9122V5.73746H57.9331V5.69561H57.954V5.65373H57.9749V5.61188H57.9958V5.57004H58.0167V5.54908H58.0379V5.50723H58.0588V5.48631H58.0797V5.44443H58.1006V5.42351H58.1215V5.38166H58.1423V5.36074H58.1632V5.31886H58.1841V5.29793H58.205V5.27701H58.2262V5.25609H58.2471V5.23513H58.268V5.21421H58.2889V5.19328H58.3098V5.17236H58.3307V5.15144H58.3516V5.10955H58.3725V5.08863H58.3937V5.06771H58.4146V5.04678H58.4355V5.02583H58.4564V5.0049H58.4981V4.98398H58.519V4.96306H58.5399V4.9421H58.5612V4.92118H58.6029V4.90025H58.6238V4.87933H58.6447V4.85841H58.6865V4.83748H58.7074V4.81653H58.7283V4.7956H58.7495V4.77468H58.7913V4.75376H58.8331V4.7328H58.8748V4.71187H58.9169V4.69095H58.9587V4.67003H58.9796V4.6491H59.0214V4.62815H59.0632V4.60722H59.1053V4.5863H59.1471V4.56538H59.2097V4.54445H59.2727V4.5235H59.3354V4.50257H59.3772V4.48165H59.4611V4.46073H59.5446V4.4398H59.6285V4.41885H59.7121V4.39792H59.796V4.377H59.8796V4.35608H59.9635V4.33515H60.047V4.31419H60.1518V4.29327H60.2354V4.27235H60.3193V4.25142H60.4028V4.2305H60.4867V4.20954H60.5703V4.18862H60.6542V4.1677H60.7377V4.14677H60.8216V4.12585H60.9261V4.10489H61.01V4.08397H61.0935V4.06305H61.1774V4.04212H61.261V4.0212H61.3449V4.00024H61.4284V3.97932H61.512V3.9584H61.6168V3.93747H61.7007V3.91655H61.7842V3.89559H61.8681V3.87467H61.9517V3.85374H62.0352V3.83282H62.1191V3.8119H62.2027V3.79094H62.2866V3.77002H62.3914V3.74909H62.4749V3.72817H62.5585V3.70725H62.6424V3.68629H62.7259V3.66537H62.8098V3.64444H62.8934V3.62352H62.9773V3.6026H63.0608V3.58164H63.1656V3.56072H63.2492V3.53979H63.3331V3.51887H63.4166V3.49795H63.5005V3.47699H63.5841V3.45606H63.668V3.43514H63.7516V3.41422H63.8355V3.39329H63.9399V3.37234H64.0238V3.35141H64.1074V3.33049H64.1913V3.30957H64.2748V3.28864H64.3587V3.26769H64.4423V3.24676H64.5262V3.22584H64.6306V3.20492H64.7145V3.18399H64.7981V3.16304H64.882V3.14211H64.9655V3.12119H65.0494V3.10027H65.133V3.07934H65.2169V3.05838H65.3004V3.03746H65.4052V3.01654H65.4888V2.99561H65.5727V2.97469H65.6562V2.95373H65.7401V2.93281H65.8237V2.91189H65.9076V2.89096H65.9911V2.87004H66.075V2.84908H66.1795V2.82816H66.2634V2.80724H66.3469V2.78631H66.4308V2.76539H66.5144V2.74443H66.5983V2.72351H66.6818V2.70259H66.7657V2.68166H66.8702V2.66074H66.9541V2.63978H67.0376V2.61886H67.1215V2.59794H67.2051V2.57701H67.289V2.55605H67.3725V2.53513H67.4564V2.51421H67.54V2.49328H67.6448V2.47236H67.7283V2.4514H67.8122V2.43048H67.8958V2.40956H67.9797V2.38863H68.0633V2.36771H68.1471V2.34679H68.2307V2.32583H68.3146V2.30491H68.4191V2.28398H68.5029V2.26306H68.5865V2.2421H68.6704V2.22118H68.754V2.20026H68.8379V2.17933H68.9214V2.15841H69.0053V2.13745H69.0471V2.15841H69.068V2.17933H69.1098V2.20026H69.1306V2.22118H69.1515V2.2421H69.1724V2.26306H69.1937V2.28398H69.2145V2.30491H69.2354V2.32583H69.2772V2.34679H69.2981V2.36771H69.319V2.38863H69.3399V2.40956H69.3611V2.43048H69.382V2.4514H69.4029V2.47236H69.4238V2.49328H69.4447V2.51421H69.4656V2.53513H69.4864V2.55605H69.5073V2.57701H69.5286V2.59794H69.5495V2.61886H69.5703V2.63978H69.6121V2.66074H69.633V2.68166H69.6539V2.70259H69.6748V2.74443H69.6957V2.76539H69.7169V2.78631H69.7378V2.80724H69.7587V2.82816H69.7796V2.84908H69.8005V2.87004H69.8214V2.89096H69.8422V2.91189H69.8631V2.93281H69.8844V2.95373H69.9053V2.97469H69.9261V2.99561H69.947V3.01654H69.9679V3.05838H69.9888V3.07934H70.0097V3.10027H70.0306V3.12119H70.0518V3.14211H70.0727V3.16304H70.0936V3.18399H70.1145V3.22584H70.1354V3.24676H70.1563V3.26769H70.1772V3.28864H70.198V3.30957H70.2189V3.35141H70.2402V3.37234H70.261V3.39329H70.2819V3.41422H70.3028V3.45606H70.3237V3.47699H70.3446V3.49795H70.3655V3.51887H70.3864V3.56072H70.4076V3.58164H70.4285V3.6026H70.4494V3.64444H70.4703V3.66537H70.4912V3.68629H70.5121V3.72817H70.533V3.74909H70.5538V3.79094H70.5751V3.8119H70.596V3.83282H70.6168V3.87467H70.6377V3.89559H70.6586V3.93747H70.6795V3.9584H70.7004V3.97932H70.7213V4.0212H70.7422V4.04212H70.7634V4.08397H70.7843V4.12585H70.8052V4.14677H70.8261V4.18862H70.847V4.20954H70.8679V4.25142H70.8887V4.27235H70.9096V4.31419H70.9309V4.35608H70.9518V4.377H70.9726V4.41885H70.9935V4.46073H71.0144V4.48165H71.0353V4.5235H71.0562V4.56538H71.0771V4.60722H71.0983V4.62815H71.1192V4.67003H71.1401V4.71187H71.161V4.75376H71.1819V4.7956H71.2028V4.83748H71.2237V4.87933H71.2445V4.92118H71.2654V4.96306H71.2867V5.0049H71.3076V5.02583H71.3284V5.06771H71.3493V5.10955H71.3702V5.17236H71.3911V5.21421H71.412V5.25609H71.4329V5.29793H71.4541V5.36074H71.475V5.40258H71.4959V5.44443H71.5168V5.48631H71.5377V5.54908H71.5586V5.59096H71.5795V5.65373H71.6003V5.69561H71.6216V5.75838H71.6425V5.80026H71.6634V5.86303H71.6842V5.92584H71.7051V5.96768H71.726V6.03049H71.7469V6.09329H71.7678V6.15606H71.7887V6.21887H71.8099V6.28164H71.8308V6.36536H71.8517V6.42817H71.8726V6.51189H71.8935V6.57466H71.9144V6.65839H71.9352V6.7212H71.9561V6.80489H71.9774V6.90954H71.9983V6.99327H72.0192V7.07699H72.04V7.18165H72.0609V7.2863H72.0818V7.41187H72.1027V7.53748H72.1236V7.66305H72.1448V7.83047H72.1657V7.99793H72.1866V8.22815H72.2075V8.54211H72.2284V9.37931H72.2075V9.69326H72.1866V9.92352H72.1657V10.0909H72.1448V10.2584H72.1236V10.4049H72.1027V10.5095H72.0818V10.6351H72.0609V10.7398H72.04V10.8444H72.0192V10.9282H71.9983V11.0328H71.9774V11.1165H71.9561V11.2003H71.9352V11.284H71.9144V11.3468H71.8935V11.4305H71.8726V11.4933H71.8517V11.577H71.8308V11.6398H71.8099V11.7026H71.7887V11.7654H71.7678V11.8282H71.7469V11.891H71.726V11.9537H71.7051V12.0165H71.6842V12.0584H71.6634V12.1212H71.6425V12.163H71.6216V12.2258H71.6003V12.2886H71.5795V12.3305H71.5586V12.3933H71.5377V12.4351H71.5168V12.477H71.4959V12.5398H71.475V12.5816H71.4541V12.6235H71.4329V12.6654H71.412V12.7072H71.3911V12.77H71.3702V12.8119H71.3493V12.8537H71.3284V12.8956H71.3076V12.9375H71.2867V12.9793H71.2654V13.0212H71.2445V13.063H71.2237V13.1049H71.2028V13.1468H71.1819V13.1677H71.161V13.2095H71.1401V13.2514H71.1192V13.2933H71.0983V13.3351H71.0771V13.3561H71.0562V13.3979H71.0353V13.4398H71.0144V13.4817H70.9935V13.5026H70.9726V13.5444H70.9518V13.5863H70.9309V13.6072H70.9096V13.6491H70.8887V13.67H70.8679V13.7119H70.847V13.7537H70.8261V13.7747H70.8052V13.8165H70.7843V13.8374H70.7634V13.8793H70.7422V13.9003H70.7213V13.9421H70.7004V13.963H70.6795V14.0049H70.6586V14.0258H70.6377V14.0677H70.6168V14.0886H70.596V14.1096H70.5751V14.1514H70.5538V14.1724H70.533V14.2142H70.5121V14.2351H70.4912V14.2561H70.4703V14.2979H70.4494V14.3189H70.4285V14.3398H70.4076V14.3817H70.3864V14.4026H70.3655V14.4235H70.3446V14.4444H70.3237V14.4863H70.3028V14.5072H70.2819V14.5282H70.261V14.5491H70.2402V14.591H70.2189V14.6119H70.198V14.6328H70.1772V14.6537H70.1563V14.6956H70.1354V14.7165H70.1145V14.7375H70.0936V14.7584H70.0727V14.7793H70.0518V14.8003H70.0306V14.8212H70.0097V14.863H69.9888V14.884H69.9679V14.9049H69.947V14.9258H69.9261V14.9468H69.9053V14.9677H69.8844V14.9886H69.8631V15.0096H69.8422V15.0305H69.8214V15.0514H69.8005V15.0723H69.7796V15.1142H69.7587V15.1351H69.7378V15.1561H69.7169V15.177H69.6957V15.1979H69.6748V15.2189H69.6539V15.2398H69.633V15.2607H69.6121V15.2816H69.5912V15.3026H69.5703V15.3235H69.5495V15.3444H69.5286V15.3654H69.5073V15.3863H69.4864V15.4072H69.4447V15.4282H69.4238V15.4491H69.4029V15.47H69.382V15.4909H69.3611V15.5119H69.3399V15.5328H69.319V15.5537H69.2981V15.5747H69.2772V15.5956H69.2563V15.6165H69.2354V15.6375H69.1937V15.6584H69.1724V15.6793H69.1515V15.7002H69.1306V15.7212H69.1098V15.7421H69.0889V15.763H69.068V15.784H69.0262V15.8049H69.0053V15.8258H68.9841V15.8468H68.9632V15.8677H68.9214V15.8886H68.9005V15.9095H68.8796V15.9305H68.8587V15.9514H68.8166V15.9723H68.7957V15.9933H68.7748V16.0142H68.754V16.0351H68.7122V16.0561H68.6913V16.077H68.6704V16.0979H68.6283V16.1188H68.6074V16.1398H68.5865V16.1607H68.5447V16.1816H68.5238V16.2026H68.4817V16.2235H68.4608V16.2444H68.4399V16.2654H68.3982V16.2863H68.3773V16.3072H68.3355V16.3281H68.3146V16.3491H68.2725V16.37H68.2516V16.3909H68.2098V16.4119H68.1889V16.4328H68.1471V16.4538H68.1259V16.4747H68.0841V16.4956H68.0424V16.5165H68.0215V16.5374H67.9797V16.5584H67.9585V16.5793H67.9167V16.6002H67.8749V16.6212H67.854V16.6421H67.8122V16.6631H67.7701V16.684H67.7283V16.7049H67.7075V16.7258H67.6657V16.7467H67.6239V16.7677H67.5818V16.7886H67.54V16.8095H67.4982V16.8305H67.4773V16.8514H67.4352V16.8724H67.3934V16.8933H67.3517V16.9142H67.3099V16.9351H67.2681V16.956H67.226V16.977H67.1842V16.9979H67.1424V17.0189H67.0794V17.0398H67.0376V17.0607H66.9959V17.0817H66.9541V17.1026H66.8911V17.0607H66.8702V16.7049H66.8911V16.5165H66.912V16.4119H66.9332V16.3281H66.9541V16.2444H66.975V16.1607H66.9959V16.0979H67.0167V16.0351H67.0376V15.9723H67.0585V15.9095H67.0794V15.8468H67.1006V15.784H67.1215V15.7212H67.1424V15.6584H67.1633V15.5956H67.1842V15.5328H67.2051V15.47H67.226V15.4072H67.2469V15.3444H67.2681V15.2816H67.289V15.2189H67.3099V15.1561H67.3308V15.0933H67.3517V15.0514H67.3725V14.9886H67.3934V14.9258H67.4143V14.863H67.4352V14.8003H67.4564V14.7375H67.4773V14.6747H67.4982V14.6119H67.5191V14.5491H67.54V14.4863H67.5609V14.4235H67.5818V14.3607H67.6027V14.2979H67.6239V14.2351H67.6448V14.1724H67.6657V14.1096H67.6866V14.0468H67.7075V13.984H67.7283V13.9212H67.7492V13.8584H67.7701V13.7956H67.7914V13.7328H67.8122V13.67H67.8331V13.6072H67.854V13.5444H67.8749V13.4817H67.8958V13.4188H67.9167V13.3561H67.9376V13.2933H67.9585V13.2305H67.9797V13.1677H68.0006V13.1049H68.0215V13.0421H68.0424V12.9793H68.0633V12.9165H68.0841V12.8537H68.105V12.7909H68.1259V12.7282H68.1471V12.6654H68.168V12.6026H68.1889V12.5398H68.2098V12.4979H68.2307V12.4351H68.2516V12.3723H68.2725V12.3096H68.2934V12.2468H68.3146V12.184H68.3355V12.1212H68.3564V12.0584H68.3773V11.9956H68.3982V11.9328H68.4191V11.87H68.4399V11.8072H68.4608V11.7444H68.4817V11.7026H68.4608V11.7235H68.4399V11.7444H68.4191V11.7654H68.3982V11.7863H68.3564V11.8072H68.3355V11.8282H68.3146V11.8491H68.2934V11.87H68.2725V11.891H68.2516V11.9119H68.2307V11.9328H68.2098V11.9537H68.1889V11.9747H68.168V11.9956H68.1471V12.0165H68.1259V12.0375H68.0841V12.0584H68.0633V12.0793H68.0424V12.1003H68.0215V12.1212H68.0006V12.1421H67.9797V12.163H67.9585V12.184H67.9376V12.2049H67.9167V12.2258H67.8958V12.2468H67.8749V12.2677H67.8331V12.2886H67.8122V12.3096H67.7914V12.3305H67.7701V12.3514H67.7492V12.3723H67.7283V12.3933H67.7075V12.4142H67.6866V12.4351H67.6657V12.4561H67.6448V12.477H67.6239V12.4979H67.5818V12.5189H67.5609V12.5398H67.54V12.5607H67.5191V12.5816H67.4982V12.6026H67.4773V12.6235H67.4564V12.6444H67.4352V12.6654H67.4143V12.6863H67.3934V12.7072H67.3725V12.7282H67.3308V12.7491H67.3099V12.77H67.289V12.7909H67.2681V12.8119H67.2469V12.8328H67.226V12.8537H67.2051V12.8747H67.1842V12.8956H67.1633V12.9165H67.1424V12.9375H67.1215V12.9584H67.0794V12.9793H67.0585V13.0002H67.0376V13.0212H67.0167V13.0421H66.9959V13.063H66.975V13.084H66.9541V13.1049H66.9332V13.1258H66.912V13.1468H66.8911V13.1677H66.8702V13.1886H66.8284V13.2095H66.8075V13.2305H66.7866V13.2514H66.7657V13.2723H66.7448V13.2933H66.7236V13.3142H66.7027V13.3351H66.6818V13.3561H66.6609V13.377H66.6401V13.3979H66.6192V13.4188H66.5983V13.4398H66.5562V13.4607H66.5353V13.4817H66.5144V13.5026H66.4935V13.5235H66.4726V13.5444H66.4517V13.5654H66.4308V13.5863H66.4099V13.6072H66.3887V13.6281H66.3678V13.6491H66.3469V13.67H66.3052V13.691H66.2843V13.7119H66.2634V13.7328H66.2425V13.7537H66.2216V13.7747H66.2004V13.7956H66.1795V13.8165H66.1586V13.8374H66.1377V13.8584H66.1168V13.8793H66.0959V13.9003H66.0541V13.9212H66.0329V13.9421H66.012V13.963H65.9911V13.984H65.9702V14.0049H65.9494V14.0258H65.9285V14.0468H65.9076V14.0677H65.8867V14.0886H65.8655V14.1096H65.8446V14.1305H65.8028V14.1514H65.7819V14.1724H65.761V14.1933H65.7401V14.2142H65.7192V14.2351H65.6983V14.2561H65.6771V14.277H65.6562V14.2979H65.6353V14.3189H65.6144V14.3398H65.5936V14.3607H65.5518V14.3817H65.5309V14.4026H65.5097V14.4235H65.4888V14.4444H65.4679V14.4654H65.447V14.4863H65.4261V14.5072H65.4052V14.5282H65.3843V14.5491H65.3634V14.57H65.3422V14.591H65.3004V14.6119H65.2795V14.6328H65.2586V14.6537H65.2378V14.6747H65.2169V14.6956H65.196V14.7165H65.1751V14.7375H65.1539V14.7584H65.133V14.7793H65.1121V14.8003H65.0912V14.8212H65.0494V14.8421H65.0285V14.863H65.0076V14.884H64.9864V14.9049H64.9655V14.9258H64.9446V14.9468H64.9237V14.9677H64.9028V14.9886H64.882V15.0096H64.8611V15.0305H64.8402V15.0514H64.819V15.0723H64.7772V15.0933H64.7563V15.1142H64.7354V15.1351H64.7145V15.1561H64.6936V15.177H64.6727V15.1979H64.6518V15.2189H64.6306V15.2398H64.6097V15.2607H64.5888V15.2816H64.5679V15.3026H64.5262V15.3235H64.5053V15.3444H64.4844V15.3654H64.4632V15.3863H64.4423V15.4072H64.4214V15.4282H64.4005V15.4491H64.3796V15.47H64.3587V15.4909H64.3378V15.5119H64.3169V15.5328H64.2748V15.5537H64.2539V15.5747H64.233V15.5956H64.2121V15.6165H64.1913V15.6375H64.1704V15.6584H64.1495V15.6793H64.1286V15.7002H64.1074V15.7212H64.0865V15.7421H64.0656V15.763H64.0238V15.784H64.0029V15.8049H63.982V15.8258H63.9611V15.8468H63.9399V15.8677H63.919V15.8886H63.8981V15.9095H63.8772V15.9305H63.8563V15.9514H63.8355V15.9723H63.8146V15.9933H63.7724V16.0142H63.7516V16.0351H63.7307V16.0561H63.7098V16.077H63.6889V16.0979H63.668V16.1188H63.6471V16.1398H63.6262V16.1607H63.605V16.1816H63.5841V16.2026H63.5632V16.2235H63.5214V16.2444H63.5005V16.2654H63.4797V16.2863H63.4588V16.3072H63.4379V16.3281H63.4166V16.3491H63.3958V16.37H63.3749V16.3909H63.354V16.4119H63.3331V16.4328H63.3122V16.4538H63.2913V16.4747H63.2492V16.4956H63.2283V16.5165H63.2074V16.5374H63.1865V16.5584H63.1656V16.5793H63.1447V16.6002H63.1239V16.6212H63.103V16.6421H63.0817V16.6631H63.0608V16.684H63.04V16.7049H62.9982V16.7258H62.9773V16.7467H62.9564V16.7677H62.9355V16.7886H62.9146V16.8095H62.8934V16.8305H62.8725V16.8514H62.8516V16.8724H62.8307V16.8933H62.8098V16.9142H62.7889V16.9351H62.7472V16.956H62.7259V16.977H62.705V16.9979H62.6842V17.0189H62.6633V17.0398H62.6424V17.0607H62.6215V17.0817H62.6006V17.1026H62.5797V17.1235H62.5585V17.1444H62.5376V17.1653H62.4958V17.1863H62.4749V17.2072H62.454V17.2282H62.4332V17.2491H62.4123V17.27H62.3914V17.291H62.3701V17.3119H62.3493V17.3328H62.3284V17.3537H62.3075V17.3746H62.2866V17.3956H62.2448V17.4165H62.2239V17.4375H62.2027V17.4584H62.1818V17.4793H62.1609V17.5003H62.14V17.5212H62.1191V17.5421H62.0982V17.563H62.0774V17.584H62.0565V17.6049H62.0352V17.6258H61.9935V17.6468H61.9726V17.6677H61.9517V17.6886H61.9308V17.7096H61.9099V17.7305" fill="url(#paint0_linear_175_1257)"/>
<path fill-rule="evenodd" clip-rule="evenodd" d="M78.1659 17.4582V14.8827H84.3645V17.458L86.3715 17.4582V13.2131H85.2172V2.53857H78.0238L77.8461 7.61835C77.7571 10.549 77.5262 12.2717 76.9581 13.2131H76.1589V17.4582H78.1659ZM79.7288 7.90254L79.8532 4.20809H83.0677V13.2131H78.9827C79.3559 12.3606 79.6401 10.8332 79.7288 7.90254ZM87.6078 5.94873V14.8827H89.4371L92.7054 9.35875V14.8827H94.7655V5.94873H92.9362L89.6679 11.4727V5.94873H87.6078ZM98.4944 5.94873H96.5407V17.4582H98.6543V13.8348C99.1871 14.6341 99.9686 15.0603 100.874 15.0603C102.935 15.0603 104.356 13.4085 104.356 10.4069C104.356 7.42295 102.97 5.7711 100.981 5.7711C99.9867 5.7711 99.1697 6.23292 98.6012 7.10325L98.4947 5.94873H98.4944ZM100.341 13.3909C99.2224 13.3909 98.6539 12.485 98.6539 10.4245C98.6539 8.34642 99.258 7.44059 100.448 7.44059C101.602 7.44059 102.171 8.34642 102.171 10.4069C102.171 12.485 101.567 13.3909 100.341 13.3909ZM112.606 14.2789V12.5562C111.949 13.0001 110.848 13.3911 109.818 13.3911C108.272 13.3911 107.687 12.6629 107.598 11.1708L112.695 11.1706V10.0516C112.695 6.94319 111.327 5.7711 109.214 5.7711C106.638 5.7711 105.413 7.74279 105.413 10.4424C105.413 13.5508 106.94 15.0606 109.64 15.0606C110.99 15.0606 111.985 14.7052 112.606 14.2789ZM109.179 7.44059C110.226 7.44059 110.546 8.31094 110.546 9.42988V9.6076H107.598C107.651 8.18674 108.166 7.44059 109.179 7.44059ZM119.351 14.8827H121.749L118.356 10.0692L121.34 5.94859L119.209 5.94873L116.225 10.0695V5.94873H114.111V14.8827H116.225V10.4955L119.351 14.8827ZM128.748 7.61835V5.94873H121.661V7.61835H124.148V14.8827H126.261V7.61835H128.748Z" fill="white"/>
<defs>
<linearGradient id="paint0_linear_175_1257" x1="76.0654" y1="0.675081" x2="45.2794" y2="29.0934" gradientUnits="userSpaceOnUse">
<stop stop-color="#FFB800"/>
<stop offset="1" stop-color="#FFF11C"/>
</linearGradient>
</defs>
</svg>
